# xmcd
#
# Track frame offsets: 
#        150
#        19240
#        40338
#        58593
#        83935
#        108320
#        128890
#        152873
#        176283
#        201590
#
# Disc length: 2914 seconds
#
# Revision: 3
# Processed by: cddbd v1.5.2PL0 Copyright (c) Steve Scherf et al.
# Submitted via: ExactAudioCopy v0.99pb4
#
DISCID=860b600a
DTITLE=Sovory - Sovory
DYEAR=1996
DGENRE=Blues
TTITLE0=Soul
TTITLE1=May Not Be
TTITLE2=Did You Mean What You Said
TTITLE3=Right Back
TTITLE4=Love Is Still Enough
TTITLE5=You Sleep, I Cry
TTITLE6=Midnight Sun
TTITLE7=Time
TTITLE8=Can't Let Me Go
TTITLE9=Sky
EXTD=YEAR: 1996 ID3G:   0
EXTT0=
EXTT1=
EXTT2=
EXTT3=
EXTT4=
EXTT5=
EXTT6=
EXTT7=
EXTT8=
EXTT9=
PLAYORDER=
